{
  "accessors": [
    {
      "bufferView": 2,
      "componentType": 5126,
      "count": 521,
      "max": [
        0.3606502115726471,
        0.24399776756763458,
        0.0945681780576706
      ],
      "min": [
        -0.3613497316837311,
        -0.27355292439460754,
        -0.0727061778306961
      ],
      "type": "VEC3"
    },
    {
      "bufferView": 2,
      "byteOffset": 6252,
      "componentType": 5126,
      "count": 521,
      "max": [
        1.0,
        1.0,
        1.0
      ],
      "min": [
        -1.0,
        -1.0,
        -1.0
      ],
      "type": "VEC3"
    },
    {
      "bufferView": 1,
      "componentType": 5126,
      "count": 521,
      "max": [
        0.5652295351028442,
        1.0399998426437378
      ],
      "min": [
        0.0,
        0.0
      ],
      "type": "VEC2"
    },
    {
      "bufferView": 0,
      "componentType": 5125,
      "count": 969,
      "type": "SCALAR"
    },
    {
      "bufferView": 2,
      "byteOffset": 12504,
      "componentType": 5126,
      "count": 4,
      "max": [
        0.35665032267570496,
        0.23999764025211334,
        0.017114371061325073
      ],
      "min": [
        -0.3573497235774994,
        -0.1660023331642151,
        0.01711430214345455
      ],
      "type": "VEC3"
    },
    {
      "bufferView": 2,
      "byteOffset": 12552,
      "componentType": 5126,
      "count": 4,
      "max": [
        0.0,
        -1.6974847483197664e-07,
        1.0
      ],
      "min": [
        0.0,
        -1.6974847483197664e-07,
        1.0
      ],
      "type": "VEC3"
    },
    {
      "bufferView": 1,
      "byteOffset": 4168,
      "componentType": 5126,
      "count": 4,
      "max": [
        0.6634998917579651,
        0.7584999799728394
      ],
      "min": [
        0.3064999282360077,
        0.5554999113082886
      ],
      "type": "VEC2"
    },
    {
      "bufferView": 0,
      "byteOffset": 3876,
      "componentType": 5125,
      "count": 6,
      "type": "SCALAR"
    },
    {
      "bufferView": 2,
      "byteOffset": 12600,
      "componentType": 5126,
      "count": 26,
      "max": [
        0.3596503436565399,
        0.24299772083759308,
        0.01711435616016388
      ],
      "min": [
        -0.36034974455833435,
        -0.16700226068496704,
        0.017114337533712387
      ],
      "type": "VEC3"
    },
    {
      "bufferView": 2,
      "byteOffset": 12912,
      "componentType": 5126,
      "count": 26,
      "max": [
        0.0,
        4.587796453847659e-08,
        1.0
      ],
      "min": [
        0.0,
        -6.208773015714542e-07,
        1.0
      ],
      "type": "VEC3"
    },
    {
      "bufferView": 1,
      "byteOffset": 4200,
      "componentType": 5126,
      "count": 26,
      "max": [
        0.7650183439254761,
        1.1599993705749512
      ],
      "min": [
        0.40499648451805115,
        0.9531713724136353
      ],
      "type": "VEC2"
    },
    {
      "bufferView": 0,
      "byteOffset": 3900,
      "componentType": 5125,
      "count": 42,
      "type": "SCALAR"
    }
  ],
  "asset": {
    "extras": {
      "author": "CN Entertainment (https://sketchfab.com/cn-entertainment)",
      "license": "CC-BY-4.0 (http://creativecommons.org/licenses/by/4.0/)",
      "source": "https://sketchfab.com/3d-models/monitor-c6a27922749448cb9e04442c32e49fd6",
      "title": "Monitor"
    },
    "generator": "Sketchfab-13.85.0",
    "version": "2.0"
  },
  "bufferViews": [
    {
      "buffer": 0,
      "byteLength": 4068,
      "name": "floatBufferViews",
      "target": 34963
    },
    {
      "buffer": 0,
      "byteLength": 4408,
      "byteOffset": 4068,
      "byteStride": 8,
      "name": "floatBufferViews",
      "target": 34962
    },
    {
      "buffer": 0,
      "byteLength": 13224,
      "byteOffset": 8476,
      "byteStride": 12,
      "name": "floatBufferViews",
      "target": 34962
    }
  ],
  "buffers": [
    {
      "byteLength": 21700,
      "uri": "scene.bin"
    }
  ],
  "materials": [
    {
      "doubleSided": true,
      "name": "WhiteRough",
      "pbrMetallicRoughness": {
        "baseColorFactor": [
          0.592578,
          0.592578,
          0.592578,
          1.0
        ],
        "metallicFactor": 0.0
      }
    },
    {
      "doubleSided": true,
      "name": "Screen1",
      "pbrMetallicRoughness": {
        "baseColorFactor": [
          0.0,
          0.0,
          0.0,
          1.0
        ],
        "metallicFactor": 0.0,
        "roughnessFactor": 0.1116163401640844
      }
    },
    {
      "doubleSided": true,
      "name": "Screen2",
      "pbrMetallicRoughness": {
        "baseColorFactor": [
          0.0,
          0.0,
          0.0,
          1.0
        ],
        "metallicFactor": 0.0
      }
    }
  ],
  "meshes": [
    {
      "name": "Monitor_WhiteRough_0",
      "primitives": [
        {
          "attributes": {
            "NORMAL": 1,
            "POSITION": 0,
            "TEXCOORD_0": 2
          },
          "indices": 3,
          "material": 0,
          "mode": 4
        }
      ]
    },
    {
      "name": "Monitor_Screen1_0",
      "primitives": [
        {
          "attributes": {
            "NORMAL": 5,
            "POSITION": 4,
            "TEXCOORD_0": 6
          },
          "indices": 7,
          "material": 1,
          "mode": 4
        }
      ]
    },
    {
      "name": "Monitor_Screen2_0",
      "primitives": [
        {
          "attributes": {
            "NORMAL": 9,
            "POSITION": 8,
            "TEXCOORD_0": 10
          },
          "indices": 11,
          "material": 2,
          "mode": 4
        }
      ]
    }
  ],
  "nodes": [
    {
      "children": [
        1
      ],
      "matrix": [
        1.0,
        0.0,
        0.0,
        0.0,
        0.0,
        2.220446049250313e-16,
        -1.0,
        0.0,
        0.0,
        1.0,
        2.220446049250313e-16,
        0.0,
        0.0,
        0.0,
        0.0,
        1.0
      ],
      "name": "Sketchfab_model"
    },
    {
      "children": [
        2
      ],
      "matrix": [
        0.009999999776482582,
        0.0,
        0.0,
        0.0,
        0.0,
        0.0,
        0.009999999776482582,
        0.0,
        0.0,
        -0.009999999776482582,
        0.0,
        0.0,
        0.0,
        0.0,
        0.0,
        1.0
      ],
      "name": "31e4b930837f4af793f05de91cb46e6e.fbx"
    },
    {
      "children": [
        3
      ],
      "name": "RootNode"
    },
    {
      "children": [
        4,
        5,
        6
      ],
      "matrix": [
        100.0,
        0.0,
        0.0,
        0.0,
        0.0,
        99.9999999999999,
        4.371138828673792e-06,
        0.0,
        0.0,
        -4.371138828673792e-06,
        99.9999999999999,
        0.0,
        259.98248291015625,
        57.355289459228516,
        -1.4568090438842773,
        1.0
      ],
      "name": "Monitor"
    },
    {
      "mesh": 0,
      "name": "Monitor_WhiteRough_0"
    },
    {
      "mesh": 1,
      "name": "Monitor_Screen1_0"
    },
    {
      "mesh": 2,
      "name": "Monitor_Screen2_0"
    }
  ],
  "scene": 0,
  "scenes": [
    {
      "name": "Sketchfab_Scene",
      "nodes": [
        0
      ]
    }
  ]
}
